# xmcd CD database file
#
# Track frame offsets:
#	150
#	12954
#	31532
#	49855
#	63589
#	81339
#	96538
#	114452
#	132326
#	154752
#	173302
#	195047
#	214668
#	236010
#	255216
#	267688
#	289279
#	304540
#
# Disc length: 4308 seconds
#
# Revision: 5
# Processed by: cddbd v1.5.2PL0 Copyright (c) Steve Scherf et al.
# Submitted via: CDex 1.51
#
DISCID=ee10d212
DTITLE=Various Artist - La Collection en Or - SLOWS  [CD 2-2]
DYEAR=2009
DGENRE=Slows
TTITLE0=Berlin - Take My Breath Away   [1986]
TTITLE1=Pacifique - Quand tu serres mon corps   [1989]
TTITLE2=Nacash - Elle imagine ...   [1987]
TTITLE3=Fabienne Thibeault - Les uns contre les autres   [1978]
TTITLE4=Louise Tucker - Midnight Blue   [1982]
TTITLE5=Dan Perlman - You Know Me, I Know You   [1979]
TTITLE6=Karen Cheryl - Via Addis-Abeba   [1987]
TTITLE7=Chagrin D'Amour - Monte Carlo   [1984]
TTITLE8=Teddy Pendergrass - Come Go With Me   [1979]
TTITLE9=Alain Delon and Phyllis Nelson - I Don't Know   [1985]
TTITLE10=Gérard Berliner - Louise   [1982]
TTITLE11=Kelly Marie - My Heart Surrender   [1991]
TTITLE12=Richard Gilly - Ma lady de Montargis   [1975]
TTITLE13=Christophe Laurent - Juste un slow d'été   [1985]
TTITLE14=Jean-François Michael - Je pense à toi   [1970]
TTITLE15=Claude-Michel Schönberg - Le premier pas   [1974]
TTITLE16=Nicolas Skorsky - Comme je t'aime   [1972]
TTITLE17=Rick Albano - Slow And Easy   [1978]
EXTD=YEAR: 2009
EXTT0=
EXTT1=
EXTT2=
EXTT3=
EXTT4=
EXTT5=
EXTT6=
EXTT7=
EXTT8=
EXTT9=
EXTT10=
EXTT11=
EXTT12=
EXTT13=
EXTT14=
EXTT15=
EXTT16=
EXTT17=
PLAYORDER=
